<svg width="35" height="30" viewBox="0 0 35 30" fill="none" xmlns="http://www.w3.org/2000/svg">
<path d="M31.7809 0.238281H22.1296C21.1931 0.238281 20.2695 0.456312 19.432 0.875106C18.5944 1.2939 17.8658 1.90196 17.3039 2.65112C16.742 1.90196 16.0135 1.2939 15.1759 0.875106C14.3383 0.456312 13.4147 0.238281 12.4782 0.238281H2.8269C2.18697 0.238281 1.57326 0.49249 1.12077 0.944985C0.668271 1.39748 0.414063 2.01119 0.414062 2.65112V21.9538C0.414063 22.5937 0.668271 23.2075 1.12077 23.6599C1.57326 24.1124 2.18697 24.3666 2.8269 24.3666H12.4782C13.4381 24.3666 14.3587 24.748 15.0374 25.4267C15.7162 26.1054 16.0975 27.026 16.0975 27.9859C16.0975 28.3059 16.2246 28.6127 16.4509 28.839C16.6771 29.0652 16.984 29.1923 17.3039 29.1923C17.6239 29.1923 17.9307 29.0652 18.157 28.839C18.3832 28.6127 18.5103 28.3059 18.5103 27.9859C18.5103 27.026 18.8916 26.1054 19.5704 25.4267C20.2491 24.748 21.1697 24.3666 22.1296 24.3666H31.7809C32.4209 24.3666 33.0346 24.1124 33.4871 23.6599C33.9396 23.2075 34.1938 22.5937 34.1938 21.9538V2.65112C34.1938 2.01119 33.9396 1.39748 33.4871 0.944985C33.0346 0.49249 32.4209 0.238281 31.7809 0.238281ZM12.4782 21.9538H2.8269V2.65112H12.4782C13.4381 2.65112 14.3587 3.03243 15.0374 3.71117C15.7162 4.38991 16.0975 5.31049 16.0975 6.27037V23.1602C15.0543 22.3753 13.7837 21.9517 12.4782 21.9538ZM31.7809 21.9538H22.1296C20.8241 21.9517 19.5535 22.3753 18.5103 23.1602V6.27037C18.5103 5.31049 18.8916 4.38991 19.5704 3.71117C20.2491 3.03243 21.1697 2.65112 22.1296 2.65112H31.7809V21.9538ZM22.1296 6.27037H28.1617C28.4816 6.27037 28.7885 6.39748 29.0148 6.62373C29.241 6.84997 29.3681 7.15683 29.3681 7.47679C29.3681 7.79675 29.241 8.10361 29.0148 8.32986C28.7885 8.55611 28.4816 8.68321 28.1617 8.68321H22.1296C21.8096 8.68321 21.5028 8.55611 21.2765 8.32986C21.0503 8.10361 20.9232 7.79675 20.9232 7.47679C20.9232 7.15683 21.0503 6.84997 21.2765 6.62373C21.5028 6.39748 21.8096 6.27037 22.1296 6.27037ZM29.3681 12.3025C29.3681 12.6224 29.241 12.9293 29.0148 13.1555C28.7885 13.3818 28.4816 13.5089 28.1617 13.5089H22.1296C21.8096 13.5089 21.5028 13.3818 21.2765 13.1555C21.0503 12.9293 20.9232 12.6224 20.9232 12.3025C20.9232 11.9825 21.0503 11.6756 21.2765 11.4494C21.5028 11.2232 21.8096 11.096 22.1296 11.096H28.1617C28.4816 11.096 28.7885 11.2232 29.0148 11.4494C29.241 11.6756 29.3681 11.9825 29.3681 12.3025ZM29.3681 17.1281C29.3681 17.4481 29.241 17.755 29.0148 17.9812C28.7885 18.2075 28.4816 18.3346 28.1617 18.3346H22.1296C21.8096 18.3346 21.5028 18.2075 21.2765 17.9812C21.0503 17.755 20.9232 17.4481 20.9232 17.1281C20.9232 16.8082 21.0503 16.5013 21.2765 16.2751C21.5028 16.0488 21.8096 15.9217 22.1296 15.9217H28.1617C28.4816 15.9217 28.7885 16.0488 29.0148 16.2751C29.241 16.5013 29.3681 16.8082 29.3681 17.1281Z" fill="#1C1C1C"/>
</svg>
