<svg width="70" height="85" viewBox="0 0 70 85" fill="none" xmlns="http://www.w3.org/2000/svg">
<path d="M50.625 53.3744C50.625 54.2032 50.2958 54.9981 49.7097 55.5841C49.1237 56.1702 48.3288 56.4994 47.5 56.4994H22.5C21.6712 56.4994 20.8763 56.1702 20.2903 55.5841C19.7042 54.9981 19.375 54.2032 19.375 53.3744C19.375 52.5456 19.7042 51.7508 20.2903 51.1647C20.8763 50.5787 21.6712 50.2494 22.5 50.2494H47.5C48.3288 50.2494 49.1237 50.5787 49.7097 51.1647C50.2958 51.7508 50.625 52.5456 50.625 53.3744ZM47.5 37.7494H22.5C21.6712 37.7494 20.8763 38.0787 20.2903 38.6647C19.7042 39.2508 19.375 40.0456 19.375 40.8744C19.375 41.7032 19.7042 42.4981 20.2903 43.0841C20.8763 43.6702 21.6712 43.9994 22.5 43.9994H47.5C48.3288 43.9994 49.1237 43.6702 49.7097 43.0841C50.2958 42.4981 50.625 41.7032 50.625 40.8744C50.625 40.0456 50.2958 39.2508 49.7097 38.6647C49.1237 38.0787 48.3288 37.7494 47.5 37.7494ZM69.375 12.7494V78.3744C69.375 80.032 68.7165 81.6217 67.5444 82.7938C66.3723 83.966 64.7826 84.6244 63.125 84.6244H6.875C5.2174 84.6244 3.62768 83.966 2.45558 82.7938C1.28348 81.6217 0.625 80.032 0.625 78.3744V12.7494C0.625 11.0918 1.28348 9.50212 2.45558 8.33002C3.62768 7.15791 5.2174 6.49943 6.875 6.49943H21.0391C22.7949 4.53351 24.9462 2.96059 27.3521 1.88365C29.7579 0.806696 32.3641 0.25 35 0.25C37.6359 0.25 40.2421 0.806696 42.6479 1.88365C45.0538 2.96059 47.2051 4.53351 48.9609 6.49943H63.125C64.7826 6.49943 66.3723 7.15791 67.5444 8.33002C68.7165 9.50212 69.375 11.0918 69.375 12.7494ZM22.5 18.9994H47.5C47.5 15.6842 46.183 12.5048 43.8388 10.1606C41.4946 7.81639 38.3152 6.49943 35 6.49943C31.6848 6.49943 28.5054 7.81639 26.1612 10.1606C23.817 12.5048 22.5 15.6842 22.5 18.9994ZM63.125 12.7494H52.6758C53.3866 14.7565 53.7499 16.8702 53.75 18.9994V22.1244C53.75 22.9532 53.4208 23.7481 52.8347 24.3341C52.2487 24.9202 51.4538 25.2494 50.625 25.2494H19.375C18.5462 25.2494 17.7513 24.9202 17.1653 24.3341C16.5792 23.7481 16.25 22.9532 16.25 22.1244V18.9994C16.2501 16.8702 16.6134 14.7565 17.3242 12.7494H6.875V78.3744H63.125V12.7494Z" fill="#1C1C1C"/>
</svg>
