<svg width="32" height="33" viewBox="0 0 32 33" fill="none" xmlns="http://www.w3.org/2000/svg">
<path d="M31.5445 17.9066C31.2882 20.8864 30.1862 23.731 28.3681 26.1058C26.55 28.4806 24.0915 30.2867 21.2818 31.3116C18.4721 32.3366 15.4281 32.5378 12.5079 31.8915C9.58776 31.2453 6.91292 29.7784 4.7981 27.6636C2.68327 25.5488 1.21643 22.8739 0.57017 19.9538C-0.0760941 17.0336 0.125095 13.9896 1.15007 11.1799C2.17504 8.37023 3.98116 5.91171 6.35593 4.09362C8.7307 2.27553 11.5753 1.1735 14.5551 0.917185C14.7136 0.904114 14.873 0.922377 15.0244 0.970929C15.1758 1.01948 15.3161 1.09737 15.4374 1.20016C15.5586 1.30294 15.6585 1.42861 15.7312 1.56997C15.8039 1.71134 15.848 1.86564 15.8611 2.02407C15.8742 2.1825 15.8559 2.34195 15.8073 2.49333C15.7588 2.6447 15.6809 2.78502 15.5781 2.90629C15.4753 3.02756 15.3497 3.1274 15.2083 3.2001C15.0669 3.2728 14.9126 3.31695 14.7542 3.33002C12.2322 3.54671 9.82448 4.47924 7.81444 6.01787C5.8044 7.5565 4.27564 9.63722 3.40802 12.0152C2.5404 14.3932 2.37003 16.9695 2.91695 19.4411C3.46387 21.9126 4.70532 24.1765 6.49524 25.9665C8.28516 27.7564 10.5491 28.9978 13.0206 29.5448C15.4922 30.0917 18.0685 29.9213 20.4465 29.0537C22.8245 28.1861 24.9052 26.6573 26.4438 24.6473C27.9825 22.6372 28.915 20.2295 29.1317 17.7075C29.1581 17.3875 29.3105 17.0912 29.5554 16.8836C29.8003 16.676 30.1177 16.5742 30.4376 16.6006C30.7576 16.627 31.054 16.7794 31.2616 17.0244C31.4691 17.2693 31.5709 17.5866 31.5445 17.9066ZM14.6547 8.1557V16.6006C14.6547 16.9206 14.7818 17.2274 15.008 17.4537C15.2343 17.6799 15.5411 17.807 15.8611 17.807H24.306C24.626 17.807 24.9328 17.6799 25.1591 17.4537C25.3853 17.2274 25.5124 16.9206 25.5124 16.6006C25.5124 16.2807 25.3853 15.9738 25.1591 15.7476C24.9328 15.5213 24.626 15.3942 24.306 15.3942H17.0675V8.1557C17.0675 7.83573 16.9404 7.52888 16.7142 7.30263C16.4879 7.07638 16.181 6.94928 15.8611 6.94928C15.5411 6.94928 15.2343 7.07638 15.008 7.30263C14.7818 7.52888 14.6547 7.83573 14.6547 8.1557ZM20.6868 4.53644C21.0447 4.53644 21.3945 4.43031 21.6921 4.23146C21.9897 4.03262 22.2217 3.74999 22.3586 3.41933C22.4956 3.08866 22.5314 2.7248 22.4616 2.37377C22.3918 2.02274 22.2194 1.70029 21.9664 1.44721C21.7133 1.19413 21.3908 1.02178 21.0398 0.951956C20.6888 0.882131 20.3249 0.917968 19.9942 1.05493C19.6636 1.1919 19.381 1.42385 19.1821 1.72144C18.9833 2.01903 18.8771 2.3689 18.8771 2.72681C18.8771 3.20676 19.0678 3.66704 19.4072 4.00641C19.7465 4.34578 20.2068 4.53644 20.6868 4.53644ZM26.1156 8.1557C26.4736 8.1557 26.8234 8.04956 27.121 7.85072C27.4186 7.65187 27.6506 7.36925 27.7875 7.03858C27.9245 6.70792 27.9603 6.34406 27.8905 5.99303C27.8207 5.64199 27.6483 5.31955 27.3952 5.06647C27.1422 4.81339 26.8197 4.64104 26.4687 4.57121C26.1177 4.50139 25.7538 4.53722 25.4231 4.67419C25.0925 4.81116 24.8098 5.0431 24.611 5.34069C24.4122 5.63828 24.306 5.98816 24.306 6.34607C24.306 6.82601 24.4967 7.2863 24.836 7.62567C25.1754 7.96504 25.6357 8.1557 26.1156 8.1557ZM29.7349 13.5846C30.0928 13.5846 30.4427 13.4784 30.7403 13.2796C31.0379 13.0808 31.2698 12.7981 31.4068 12.4675C31.5437 12.1368 31.5796 11.7729 31.5098 11.4219C31.4399 11.0709 31.2676 10.7484 31.0145 10.4954C30.7614 10.2423 30.439 10.0699 30.0879 10.0001C29.7369 9.93027 29.3731 9.96611 29.0424 10.1031C28.7117 10.24 28.4291 10.472 28.2302 10.7696C28.0314 11.0672 27.9253 11.417 27.9253 11.7749C27.9253 12.2549 28.1159 12.7152 28.4553 13.0545C28.7947 13.3939 29.255 13.5846 29.7349 13.5846Z" fill="#1C1C1C"/>
</svg>
